<?xml version="1.0" encoding="utf-8"?>
<!-- Generator: flash2svg, http://dissentgraphics.com/tools/flash2svg -->
<svg id="Scene_1_copy_13_copy_13_copy_13_copy_9_f0" image-rendering="optimizeQuality" baseProfile="basic" version="1.1" x="0px" y="0px" width="550px" height="400px" viewBox="-131396.8 -50 81030609.05 1738.35" xmlns="http://www.w3.org/2000/svg" xmlns:xlink="http://www.w3.org/1999/xlink">
  <g id="Scene_1_copy_13_copy_13_copy_13_copy_9_f0_1_0">
    <g id="element2" overflow="visible">
      <g id="Symbol_1_f0_0">
        <g id="element4">
          <path id="path5" fill="#906" d="M639.95,265 Q640.55,264.75 641.2,264.5 C641.35,264.25 641.5,263.95 641.65,263.7 641.75,263.45 641.8,263.25 641.8,263 641.8,262.75 641.75,262.5 641.7,262.25 641.55,262 641.35,261.75 641.1,261.6 640.75,261.35 640.35,261.15 639.95,261 613.85,259.2 587.7,258.8 561.45,259.75 560.2,259.3 558.95,258.9 557.7,258.5 555.4,257.75 553.5,256.5 551.95,254.75 551.9,254.5 551.8,254.25 551.65,254 551.5,253.75 551.4,253.45 551.25,253.2 551.15,252.95 551.05,252.75 550.95,252.5 550.4,250.25 550.15,248 550.1,245.75 550,238.75 550,231.75 550.05,224.75 550.1,219.2 550,213.7 549.7,208.25 549.55,208 549.35,207.75 549.1,207.6 548.75,207.35 548.4,207.15 547.95,207 547.6,207.05 547.3,207.2 547,207.35 546.8,207.45 546.6,207.6 546.45,207.75 546.3,208 546.15,208.25 546.05,208.5 546,208.75 545.95,209 545.95,209.25 545.95,209.5 545.95,209.7 545.9,209.95 545.85,210.2 545.8,210.5 545.7,210.75 545.05,211.25 544.35,211.7 543.6,212.05 541.95,212.85 540.35,213.65 538.7,214.5 532,220.15 527.15,227.15 524.1,235.55 520.1,246.5 513.05,254.5 502.95,259.5 471.9,261.4 442.5,256.05 414.7,243.5 413.85,241.95 412.95,240.45 412,238.95 406.85,230.7 404.4,221.75 404.65,212 404.85,204.75 404.95,197.5 404.95,190.25 405.1,189.75 405.25,189.25 405.4,188.7 405.65,187.9 405.95,187.15 406.35,186.4 406.6,185.95 406.8,185.5 406.95,185 406.95,184.75 407,184.55 407.15,184.4 407.45,184.05 407.8,183.75 408.2,183.5 408.35,183.25 408.5,182.95 408.65,182.7 408.8,182.45 408.85,182.25 408.85,182 408.85,181.75 408.8,181.5 408.7,181.25 408.55,181 408.35,180.75 408.1,180.6 407.75,180.35 407.4,180.15 406.95,180 406.3,180 405.6,180 404.95,180.05 404.6,180.1 404.3,180.15 404,180.3 403.9,180.35 403.8,180.4 403.7,180.5 400.45,182.85 397.35,185.4 394.5,188.25 385.6,197.1 375.85,204.85 365.25,211.4 346.5,222.95 326.4,231.65 304.95,237.5 294.95,237.5 284.95,237.65 274.95,237.95 262,238.35 249.55,236.35 237.7,232 237.2,231.5 236.7,231 236.2,230.5 234.7,229 233.2,227.5 231.7,226 229.95,224.25 228.2,222.5 226.45,220.75 226.2,220.25 226,219.75 225.75,219.2 225.3,218.15 224.85,217.15 224.3,216.2 223.75,215.25 223.3,214.3 222.95,213.25 222.95,211.25 222.95,209.25 222.95,207.25 222.95,204 223,200.75 223.05,197.5 223.1,194.7 223,191.95 222.7,189.25 222.55,189 222.35,188.75 222.15,188.6 221.8,188.35 221.4,188.15 220.95,188 220.55,188.15 220.15,188.35 219.7,188.5 219.45,188.75 219.2,189 218.95,189.25 218.9,189.5 218.8,189.7 218.65,189.95 218.5,190.2 218.35,190.5 218.2,190.75 215.35,193.1 212.55,195.55 209.9,198.15 207.15,200.9 204.35,203.45 201.5,205.9 186.85,218.45 170.5,228.65 152.45,236.5 136,237.95 119.75,236.75 103.75,233 103.15,232.55 102.55,232.15 102,231.7 100.85,230.85 99.85,229.8 99.1,228.65 98.15,227.2 97.2,225.7 96.25,224.25 96.15,224 96.05,223.75 96,223.5 95.85,223 95.65,222.5 95.5,222 95.25,221.25 95,220.5 94.75,219.75 94.5,219 94.25,218.25 94,217.5 94,215.75 93.95,214 93.9,212.25 93.75,206.4 94.15,200.7 95.15,195.05 96,190.4 97.4,185.85 99.25,181.5 100.2,180.4 101.3,179.4 102.5,178.5 103.75,177.55 105,176.55 106.25,175.5 106.4,175.25 106.55,174.95 106.7,174.7 106.8,174.45 106.85,174.25 106.85,174 106.85,173.75 106.8,173.5 106.75,173.25 106.6,173 106.4,172.75 106.15,172.6 105.8,172.35 105.4,172.2 104.95,172.1 104.65,172.05 104.35,172 104,172 103.75,172.15 103.35,172.35 102.9,172.7 101.6,173.55 100.35,174.5 99.2,175.5 97.75,176.7 96.5,178.1 95.5,179.75 94.85,180.25 94.15,180.75 93.5,181.25 84.45,188.4 75.2,195.25 65.65,201.75 36.4,221.75 4.8,236.1 -29.25,244.75 -31.4,244.65 -33.6,244.55 -35.75,244.5 -36.2,244.35 -36.6,244.15 -37,244 -37.35,244.05 -37.65,244.15 -38,244.25 -38.15,244.4 -38.35,244.6 -38.5,244.75 -38.65,245 -38.8,245.25 -38.9,245.5 -38.95,245.75 -39,246 -39,246.25 -38.95,246.5 -38.85,246.7 -38.7,246.9 -38.5,247.2 -38.25,247.5 -38,247.75 -37.75,248 -37.5,248.25 -37.25,248.5 -36.85,248.65 -36.45,248.85 -36,249 -32.35,249.35 -28.7,249.1 -25.15,248.15 -16.75,245.95 -8.55,243.25 -0.55,240.05 32.95,226.7 63.95,209 92.5,187 91.95,189.25 91.45,191.5 91,193.8 90.15,198.45 89.8,203.15 89.9,208 89.95,211.5 90,215 90,218.5 90.05,218.75 90.15,219 90.25,219.25 90.4,219.75 90.6,220.25 90.75,220.75 91,221.5 91.25,222.25 91.5,223 91.75,223.75 92,224.5 92.25,225.25 92.6,225.75 92.9,226.25 93.15,226.8 93.9,228.3 94.85,229.75 95.9,231.1 97.55,233.2 99.5,235 101.75,236.5 109.25,238.1 116.85,239.2 124.55,239.8 133.7,240.5 142.55,239.8 151.2,237.75 164.85,234.45 177.55,228.85 189.35,220.95 192.2,219.05 194.85,217 197.35,214.8 204.6,208.45 211.8,202.2 218.95,196 218.95,197.75 218.95,199.5 218.95,201.25 219,203.5 219,205.75 219,208 219,210.25 219,212.5 218.95,214.75 219.4,215.5 219.8,216.25 220.15,217 220.6,218.05 221.1,219.05 221.6,220.05 222.1,221.05 222.65,222.05 223.2,223 223.45,223.25 223.7,223.5 223.95,223.75 225.95,225.75 227.95,227.75 229.95,229.75 231.95,231.75 233.95,233.75 235.95,235.75 238,236.55 240.15,237.15 242.3,237.55 262.5,241.4 283.05,242.9 303.95,242 306.6,241.15 309.2,240.35 311.85,239.65 328.35,235.05 343.95,228.55 358.65,220.15 363.4,217.45 368,214.5 372.45,211.25 383.05,203.55 392.7,195.7 401.45,187.75 401.4,188 401.3,188.25 401.2,188.5 401.15,188.75 401.05,189 400.95,189.25 400.95,190.75 400.95,192.25 400.9,193.75 400.6,203.6 401.05,213.3 402.25,222.9 403.4,232.15 406.95,240.4 412.95,247.75 441.35,259.5 471,264.9 501.95,264 505.1,262.95 508.15,261.75 511.2,260.5 511.7,260 512.2,259.5 512.7,259 514.45,257.3 516.05,255.5 517.5,253.6 519.05,251.6 520.6,249.65 522.2,247.75 522.7,246.75 523.2,245.75 523.75,244.75 526.05,240.3 528.35,235.8 530.7,231.35 532.45,228 534.35,224.7 536.45,221.5 537.45,220.75 538.45,219.95 539.4,219.15 539.95,218.7 540.45,218.25 540.95,217.75 541.55,217.5 542.15,217.25 542.7,217 543.35,216.75 544.05,216.5 544.7,216.25 545.15,216.25 545.5,216.35 545.8,216.5 545.9,216.55 545.95,216.75 545.95,217 545.95,219 545.95,221 545.95,223 545.95,228.75 545.85,234.5 545.7,240.25 545.6,244.85 546,249.35 546.95,253.75 547.6,255 548.4,256.1 549.35,257.15 552.65,260.8 556.85,263.1 561.95,264 588.05,263.4 614.05,263.75 639.95,265z"/>
        </g>
      </g>
    </g>
  </g>
  <g id="Scene_1_copy_13_copy_13_copy_13_copy_9_f0_0_0">
    <g id="element">
      <path id="path" fill="#906" d="M-2147270.65,65.05 Q-2147276.15,65.05 -2147281.65,65.05 C-2147287.6,68.95 -2147293.6,73.25 -2147299.65,78 -2147301.3,79.25 -2147302.75,80.7 -2147304.05,82.25 -2147317.4,98.6 -2147327.3,116.9 -2147333.8,137.2 -2147338.65,152.25 -2147340.55,167.75 -2147339.6,183.8 -2147339.35,184.05 -2147339.1,184.3 -2147338.85,184.55 -2147338.45,184.7 -2147338.05,184.9 -2147337.6,185.05 -2147336.95,185.05 -2147336.3,184.95 -2147335.7,184.8 -2147333.65,184.3 -2147331.6,183.65 -2147329.6,182.9 -2147329.35,182.85 -2147329.1,182.8 -2147328.85,182.8 -2147330.1,185.05 -2147331.3,187.3 -2147332.45,189.6 -2147336.05,197.05 -2147340.45,204.05 -2147345.6,210.55 -2147348,213.55 -2147350.4,216.55 -2147352.85,219.55 -2147353.3,220.6 -2147353.85,221.65 -2147354.5,222.6 -2147363.5,235.65 -2147371.45,249.2 -2147378.4,263.25 -2147383.25,273.1 -2147389.25,282.1 -2147396.35,290.25 -2147396.8,290.2 -2147397.2,290.1 -2147397.6,290 -2147398.05,290.15 -2147398.45,290.35 -2147398.85,290.5 -2147399.1,290.75 -2147399.3,291.05 -2147399.45,291.35 -2147399.55,291.55 -2147399.6,291.75 -2147399.6,292 -2147399.6,292.25 -2147399.6,292.5 -2147399.55,292.75 -2147399.4,293.25 -2147399.25,293.75 -2147399.1,294.25 -2147399.05,294.5 -2147398.95,294.75 -2147398.85,295 -2147398.8,295.25 -2147398.7,295.5 -2147398.6,295.75 -2147398.35,296 -2147398.1,296.25 -2147397.85,296.5 -2147397.45,296.65 -2147397.05,296.85 -2147396.6,297 -2147396.25,296.95 -2147395.95,296.85 -2147395.65,296.7 -2147395.55,296.65 -2147395.45,296.6 -2147395.35,296.5 -2147395.3,296.35 -2147395.2,296.2 -2147395.1,296.05 -2147394.95,295.8 -2147394.8,295.5 -2147394.65,295.25 -2147394.55,295 -2147394.45,294.8 -2147394.3,294.55 -2147394.15,294.3 -2147394,294 -2147393.85,293.75 -2147392.9,292.8 -2147392,291.8 -2147391.15,290.75 -2147390.3,289.75 -2147389.45,288.75 -2147388.6,287.8 -2147388.35,287.55 -2147388.1,287.25 -2147387.85,287 -2147379.35,271.3 -2147370.55,255.75 -2147361.4,240.35 -2147354.2,228.2 -2147346,216.75 -2147336.85,206.05 -2147335.2,202.7 -2147333.5,199.45 -2147331.75,196.2 -2147329,191.2 -2147326.3,186.2 -2147323.55,181.2 -2147322.7,179.7 -2147321.8,178.25 -2147320.85,176.8 -2147320.5,176.55 -2147320.2,176.25 -2147319.9,176 -2147319.65,175.75 -2147319.4,175.5 -2147319.2,175.2 -2147319.05,175 -2147318.95,174.8 -2147318.85,174.55 -2147318.8,174.3 -2147318.75,174 -2147318.7,173.75 -2147318.65,173.5 -2147318.65,173.3 -2147318.7,173.05 -2147318.75,172.8 -2147318.8,172.55 -2147318.85,172.3 -2147319,172.05 -2147319.2,171.8 -2147319.45,171.65 -2147319.8,171.4 -2147320.2,171.2 -2147320.6,171.05 -2147321.05,171.2 -2147321.45,171.4 -2147321.85,171.55 -2147322.35,172.05 -2147322.85,172.55 -2147323.35,173.05 -2147323.5,173.3 -2147323.7,173.55 -2147323.85,173.8 -2147324,174.05 -2147324.2,174.3 -2147324.35,174.55 -2147324.95,175.05 -2147325.55,175.55 -2147326.15,176 -2147328.8,178.05 -2147331.7,179.5 -2147334.9,180.45 -2147335.15,180.5 -2147335.35,180.55 -2147335.6,180.55 -2147335.6,176.05 -2147335.45,171.55 -2147335.15,167.05 -2147334.75,161.25 -2147333.95,155.5 -2147332.8,149.8 -2147332.35,147.55 -2147331.95,145.3 -2147331.6,143.05 -2147330.05,139.3 -2147328.5,135.55 -2147327.05,131.8 -2147325,126.55 -2147322.95,121.25 -2147320.9,116 -2147320.2,114.25 -2147319.5,112.55 -2147318.85,110.8 -2147316.3,106.55 -2147313.85,102.2 -2147311.5,97.85 -2147308.85,92.85 -2147305.45,88.6 -2147301.2,85.05 -2147294.8,79.7 -2147288.3,74.55 -2147281.65,69.55 -2147278.3,69.45 -2147275,69.4 -2147271.65,69.4 -2147271.55,69.4 -2147271.45,69.45 -2147271.4,69.55 -2147271.4,69.7 -2147271.35,69.85 -2147271.25,70 -2147270.7,71.05 -2147270.1,72.05 -2147269.55,73.1 -2147269,74.15 -2147268.4,75.1 -2147267.65,76.05 -2147267.5,76.3 -2147267.3,76.55 -2147267.15,76.8 -2147267.05,77.05 -2147266.95,77.3 -2147266.9,77.55 -2147266.8,77.8 -2147266.7,78.05 -2147266.65,78.3 -2147266.55,78.55 -2147266.45,78.8 -2147266.4,79.05 -2147265.95,83.55 -2147265.4,88.05 -2147264.85,92.55 -2147264.2,97.3 -2147263.65,102.05 -2147263.1,106.8 -2147262.95,108.05 -2147262.8,109.3 -2147262.65,110.55 -2147263.1,115.3 -2147263.5,120.05 -2147263.85,124.8 -2147265,139.55 -2147266.15,154.25 -2147267.3,169 -2147268.1,179.5 -2147268.9,190 -2147269.65,200.55 -2147270.7,203.8 -2147271.75,207 -2147272.7,210.25 -2147277,224.5 -2147281.35,238.75 -2147285.8,252.95 -2147289.05,263.35 -2147293,273.35 -2147297.6,283 -2147297.6,283.25 -2147297.55,283.5 -2147297.45,283.7 -2147297.3,284 -2147297.1,284.25 -2147296.85,284.5 -2147296.45,284.65 -2147296.05,284.85 -2147295.6,285 -2147295.2,284.85 -2147294.8,284.65 -2147294.45,284.4 -2147294.2,284.25 -2147294,284 -2147293.85,283.75 -2147292.65,280.3 -2147291.3,276.95 -2147289.85,273.7 -2147283.7,260 -2147278.6,245.85 -2147274.5,231.3 -2147271.65,221.25 -2147268.7,211.25 -2147265.65,201.3 -2147265.2,195.05 -2147264.7,188.75 -2147264.25,182.5 -2147262.7,162.75 -2147261.25,143 -2147259.9,123.25 -2147258.85,107.7 -2147259.75,92.25 -2147262.65,76.8 -2147262.8,76.55 -2147262.95,76.25 -2147263.1,76 -2147264.05,74.25 -2147265,72.5 -2147266.05,70.75 -2147267,69.25 -2147267.95,67.75 -2147268.9,66.3 -2147269.05,66.05 -2147269.25,65.8 -2147269.4,65.55 -2147269.8,65.4 -2147270.2,65.2 -2147270.65,65.05z"/>
    </g>
    <g id="element1" overflow="visible">
      <g id="Symbol_2_0">
        <g id="element3">
          <path id="path1" fill="#906" d="M-4,64.75 Q-4,64.35 -4.1,64 C-4.15,63.75 -4.2,63.5 -4.25,63.25 -5.1,62.15 -6,61.15 -7,60.2 -8,59.25 -9,58.25 -10,57.25 -10.25,57 -10.5,56.75 -10.75,56.5 -11.2,56.35 -11.6,56.15 -12,56 -18.35,56 -24.65,56 -31,56 -31.95,56.25 -33,56.6 -34.25,57.05 -36,57.7 -37.45,58.75 -38.65,60.1 -38.8,60.25 -38.95,60.5 -39,60.75 -39,61.75 -39,62.75 -39,63.75 -39,66.5 -39,69.25 -39,72 -39,74 -39,76 -39,78 -39,78.25 -39,78.5 -39,78.75 -38.75,79 -38.5,79.25 -38.25,79.5 -37.85,79.65 -37.45,79.85 -37,80 -36.65,79.9 -36.35,79.8 -36.05,79.65 -35.85,79.55 -35.65,79.4 -35.5,79.25 -35.35,79.1 -35.2,79 -35.1,79.05 -34.8,79.1 -34.5,79.25 -34.25,79.5 -33.85,79.65 -33.45,79.85 -33,80 -22.85,81.85 -13.1,80.9 -3.85,77.25 -3.6,77.15 -3.4,77 -3.25,76.75 -3,76 -2.9,75.25 -2.95,74.5 -3,73.75 -3,73 -3,72.25 -3,71.5 -3,70.75 -3,70 -3,69.75 -3,69.5 -3,69.25 -3.1,69 -3.2,68.75 -3.25,68.5 -3.35,68.25 -3.45,68 -3.5,67.75 -3.6,67.5 -3.7,67.25 -3.75,67 -3.85,66.75 -3.95,66.5 -4,66.25 -4,66 -4,65.75 -4,65.5 -4,65.25 -4,65 -4,64.75z M-8,67 C-8,67.25 -8,67.5 -8,67.75 -7.85,68 -7.7,68.25 -7.55,68.5 -7.45,68.75 -7.35,69 -7.25,69.25 -7.2,69.5 -7.1,69.75 -7,70 -7,70.25 -7,70.5 -7,70.75 -7,71.25 -7,71.75 -7,72.25 -7,72.5 -7,72.75 -7,73 -7,73.25 -7,73.5 -7,73.75 -7.65,74.1 -8.35,74.4 -9.05,74.7 -9.6,74.95 -10.2,75.25 -10.75,75.5 -17.75,75.5 -24.75,75.5 -31.75,75.5 -31.9,75.35 -32.1,75.15 -32.25,75 -32.5,74.75 -32.75,74.5 -33,74.25 -33.25,74 -33.5,73.75 -33.75,73.5 -34.2,73.35 -34.55,73.1 -34.9,72.85 -34.95,72.8 -35,72.65 -35,72.5 -35,71.75 -35,71 -35,70.25 -35,68.75 -35.05,67.25 -35.1,65.75 -35.15,64.45 -35.05,63.2 -34.75,62 -34.4,61.75 -34.1,61.5 -33.75,61.3 -33.25,61 -32.75,60.75 -32.25,60.5 -32,60.4 -31.75,60.35 -31.5,60.35 -25.1,60.35 -18.7,60.4 -12.25,60.5 -11.85,60.9 -11.45,61.3 -11,61.75 -10.25,62.5 -9.55,63.25 -8.8,64.05 -8.6,64.25 -8.4,64.5 -8.25,64.75 -8.2,65 -8.15,65.25 -8.1,65.5 -8.05,65.75 -8,66 -8,66.25 -8,66.5 -8,66.75 -8,67z"/>
        </g>
      </g>
    </g>
  </g>
  <defs/>
</svg>