<?xml version="1.0" encoding="utf-8"?>
<!-- Generator: flash2svg, http://dissentgraphics.com/tools/flash2svg -->
<svg id="Scene_1_copy_13_copy_13_copy_13_copy_9_f1" image-rendering="optimizeQuality" baseProfile="basic" version="1.1" x="0px" y="0px" width="550px" height="400px" viewBox="-89 -50 81257843.64999999 1738.35" xmlns="http://www.w3.org/2000/svg" xmlns:xlink="http://www.w3.org/1999/xlink">
  <g id="Scene_1_copy_13_copy_13_copy_13_copy_9_f1_1_1">
    <g id="element1" overflow="visible">
      <g id="Symbol_1_f1_1">
        <g id="element3">
          <path id="path4" fill="#906" d="M27,168 Q27,168.1 26.95,168.15 C26.55,168.3 26.15,168.4 25.75,168.5 25.5,168.75 25.25,169 25,169.25 25,169.5 24.95,169.7 24.85,169.95 24.8,170.2 24.65,170.5 24.5,170.75 23.5,171.6 22.65,172.6 22,173.75 21.55,174.6 20.95,175.35 20.25,176 20.15,176.25 20.05,176.5 20,176.75 19.9,177 19.8,177.25 19.75,177.5 19.5,177.75 19.25,178 19,178.25 19,178.5 18.95,178.7 18.85,178.95 18.8,179.2 18.65,179.5 18.5,179.75 18.25,180 18,180.25 17.75,180.5 17.5,180.75 17.25,181 17,181.25 16.75,181.5 16.5,181.75 16.25,182 16,182.5 15.7,183 15.45,183.45 15.3,183.7 15.2,184 15.1,184.25 15.05,184.5 15,184.75 15,185 15,185.25 15,185.5 15,185.75 15,186 15,186.25 15,186.5 15,186.75 15,187 15,187.25 14.1,188.4 13.3,189.65 12.6,190.9 12.1,191.9 11.65,192.95 11.25,194 7.7,197.85 4.1,201.75 0.55,205.6 -5,211.55 -10.4,217.7 -15.75,224 -15.9,224.25 -16.05,224.5 -16.2,224.75 -16.65,225.8 -17.2,226.75 -17.95,227.6 -18.6,228.35 -18.95,229.15 -19,230 -19,230.25 -18.95,230.45 -18.85,230.65 -18.7,230.95 -18.5,231.25 -18.25,231.5 -17.85,231.65 -17.45,231.85 -17,232 -16.65,231.9 -16.35,231.8 -16.05,231.65 -15.95,231.6 -15.85,231.55 -15.75,231.5 -15.6,231.35 -15.4,231.15 -15.25,231 -15,230.75 -14.75,230.5 -14.5,230.25 -10,223.55 -4.8,217.4 1.05,211.8 8.55,204.65 14.55,196.55 19,187.5 19,187.25 19,187 19,186.75 19,186.5 19,186.25 19,186 19,185.75 19,185.5 19,185.25 19.45,184.4 20.05,183.6 20.7,182.95 21.25,182.5 21.75,182 22.25,181.5 22.5,181 22.75,180.5 23,180 23.25,179.5 23.45,179 23.7,178.45 23.8,178.2 23.9,178 24,177.75 24.25,177.5 24.5,177.3 24.8,177.25 24.85,177.25 24.9,177.35 25,177.5 25,178 25,178.5 25,179 25,179.5 25,180 25.05,180.45 25.1,180.7 25.15,181 25.25,181.25 26.65,184 28.1,186.7 29.55,189.45 31.15,192.5 32.9,195.55 34.75,198.5 37.25,201.75 40,204.7 43.05,207.4 46.7,210.75 50.3,214.15 53.75,217.7 56.15,220.2 58.85,222.3 61.9,224.05 79,233.8 97.35,235.4 117,228.75 123.15,224.3 128.65,219.25 133.4,213.5 139.85,205.85 146.35,198.25 152.95,190.75 153.55,190.6 154.15,190.55 154.7,190.6 154.8,190.6 154.9,190.75 154.95,191 154.95,192.25 154.95,193.5 154.95,194.75 154.95,199 154.95,203.25 154.95,207.5 154.95,212 154.95,216.5 154.95,221 157.5,228.3 161.15,234.95 165.9,240.9 168.25,243.85 171.05,246.2 174.4,247.9 195.2,258.55 217.35,262.65 240.9,260.2 245.25,259.75 249.1,258.25 252.45,255.6 268.9,242.7 282.1,226.9 291.95,208.25 291.95,208 291.95,207.75 291.95,207.5 291.95,207.25 292,207 292.1,206.75 292.15,206.5 292.3,206.25 292.45,206 296.65,212.55 301.15,218.9 305.9,225.1 307.55,227.25 309.15,229.5 310.65,231.75 316.2,240.4 323.7,246.6 333.1,250.45 357.3,260.3 382.6,263.7 408.95,260.75 415.9,256.9 422.2,252.3 427.8,246.85 435.15,239.7 441.15,231.7 445.7,222.75 445.95,222.5 446.2,222.2 446.4,221.95 447.1,221 447.75,220 448.4,218.95 448.9,218.1 449.5,217.4 450.2,216.75 450.3,216.5 450.4,216.25 450.55,216.05 451.05,215.3 451.45,214.55 451.75,213.75 452,213.25 452.2,212.75 452.45,212.25 453.95,210.75 455.35,209.15 456.65,207.5 458,205.75 459.4,204.35 460.95,203.25 460.95,203.75 460.95,204.25 460.95,204.75 460.95,205.25 460.95,205.75 460.95,206.25 460.95,206.5 460.95,206.75 460.95,207 461.1,207.25 461.25,207.5 461.35,207.75 461.85,209 462.3,210.25 462.7,211.5 463.05,212.55 463.5,213.55 463.95,214.5 464.05,215 464.15,215.5 464.3,215.95 464.75,217.5 465.2,219 465.75,220.45 466.15,221.7 466.45,223 466.7,224.25 467.75,226 468.75,227.7 469.8,229.4 470.9,231.15 471.95,232.95 472.95,234.75 473.05,235 473.15,235.2 473.25,235.45 473.95,237.25 474.65,239.05 475.3,240.8 475.85,242.3 476.5,243.8 477.2,245.25 484.75,256.3 494.25,265.45 505.7,272.6 512.75,276.95 520.2,280 528.15,281.75 552.4,287 575.2,283.85 596.45,272.25 596.95,272.1 597.45,271.9 597.9,271.65 598,271.6 598.1,271.55 598.2,271.5 598.35,271.35 598.55,271.15 598.7,271 598.95,270.75 599.15,270.45 599.35,270.15 599.5,269.95 599.6,269.75 599.7,269.5 599.75,269.25 599.85,268.95 599.9,268.7 599.95,268.45 599.95,268.25 599.9,268 599.85,267.75 599.75,267.5 599.7,267.25 599.55,267 599.35,266.75 599.1,266.6 598.75,266.35 598.35,266.15 597.95,266 597.6,266.05 597.3,266.2 597,266.35 596.8,266.45 596.6,266.6 596.45,266.75 588.1,272.45 578.85,276.4 568.65,278.55 557.4,280.95 545.95,281.2 534.3,279.25 522,277.2 510.85,272.25 500.85,264.4 496.5,261 492.7,257.2 489.35,252.95 478.15,238.8 470,223 464.95,205.5 464.95,205 464.95,204.5 464.95,204 464.95,202.75 465,201.5 465.05,200.25 465.1,199.2 464.95,198.2 464.7,197.25 464.55,197 464.35,196.75 464.1,196.6 463.75,196.35 463.4,196.15 462.95,196 462.55,196.15 462.15,196.35 461.7,196.5 460,198.25 458.35,200.1 456.8,202 454.45,204.8 451.95,207.45 449.2,210 447.65,213.2 445.85,216.25 443.8,219.2 441.65,222.25 439.6,225.25 437.55,228.3 429.75,239.9 419.9,249.3 407.95,256.5 395.3,256.5 382.65,256.05 370.05,255.2 354.3,254.15 339.4,249.9 325.45,242.5 321,236.85 316.5,231.3 311.85,225.85 306.3,219.3 301.25,212.35 296.7,205 296.7,204.75 296.7,204.5 296.65,204.25 296.45,203.5 296.2,202.75 295.9,202 295.7,201.5 295.45,201 295.2,200.5 294.8,200.35 294.4,200.2 293.95,200.1 293.6,200.05 293.3,200 292.95,200 292.6,200.05 292.3,200.15 292,200.3 291.9,200.35 291.8,200.4 291.7,200.5 290.9,201.35 290.15,202.3 289.5,203.25 288.95,204 288.45,204.75 287.95,205.5 287.95,205.75 287.95,206 287.95,206.25 287.95,206.5 287.95,206.7 287.9,206.95 287.85,207.2 287.8,207.5 287.7,207.75 283.45,213.9 279.45,220.2 275.65,226.6 267.6,240.25 256.45,250.2 242.2,256.5 228.55,258.35 215.05,257.9 201.8,255.2 188.45,252.5 176.9,246.6 167.2,237.5 165.45,234.65 163.85,231.65 162.5,228.6 161.2,225.65 160,222.6 158.95,219.5 158.95,217.75 158.95,216 158.95,214.25 158.95,209.5 159,204.75 159.05,200 159.1,194.7 159,189.45 158.7,184.25 158.55,184 158.35,183.75 158.15,183.6 157.8,183.35 157.4,183.15 156.95,183 156.6,183.05 156.3,183.15 156,183.3 155.9,183.35 155.8,183.4 155.7,183.5 155.55,183.65 155.4,183.85 155.3,184.05 155.15,184.25 155.05,184.5 154.95,184.75 154.9,185 154.8,185.25 154.7,185.5 154.35,185.75 154.05,186 153.7,186.25 148.05,189.85 143.25,194.55 139.35,200.4 132.75,210.25 124.55,218.55 114.75,225.25 103.6,228.7 92.1,229.55 80.25,227.75 79.4,227.5 78.55,227.25 77.7,227.1 74.25,226.35 71.05,225.1 68.2,223.25 62.45,219.6 56.95,215.55 51.7,211.1 41.35,202.25 33.75,191.55 29,179 29,178.5 29,178 29,177.5 29,176 29.05,174.5 29.1,173 29.15,171.7 29,170.45 28.75,169.25 28.6,169 28.4,168.75 28.15,168.6 27.8,168.35 27.4,168.15 27,168z"/>
        </g>
      </g>
    </g>
  </g>
  <g id="Scene_1_copy_13_copy_13_copy_13_copy_9_f1_0_1">
    <g id="element" overflow="visible">
      <g id="Symbol_2_0">
        <g id="element2">
          <path id="path" fill="#906" d="M39.95,57.25 Q39.95,56.85 39.85,56.5 C39.8,56.25 39.75,56 39.7,55.75 38.85,54.65 37.95,53.65 36.95,52.7 35.95,51.75 34.95,50.75 33.95,49.75 33.7,49.5 33.45,49.25 33.2,49 32.75,48.85 32.35,48.65 31.95,48.5 25.6,48.5 19.3,48.5 12.95,48.5 12,48.75 10.95,49.1 9.7,49.55 7.95,50.2 6.5,51.25 5.3,52.6 5.15,52.75 5,53 4.95,53.25 4.95,54.25 4.95,55.25 4.95,56.25 4.95,59 4.95,61.75 4.95,64.5 4.95,66.5 4.95,68.5 4.95,70.5 4.95,70.75 4.95,71 4.95,71.25 5.2,71.5 5.45,71.75 5.7,72 6.1,72.15 6.5,72.35 6.95,72.5 7.3,72.4 7.6,72.3 7.9,72.15 8.1,72.05 8.3,71.9 8.45,71.75 8.6,71.6 8.75,71.5 8.85,71.55 9.15,71.6 9.45,71.75 9.7,72 10.1,72.15 10.5,72.35 10.95,72.5 21.1,74.35 30.85,73.4 40.1,69.75 40.35,69.65 40.55,69.5 40.7,69.25 40.95,68.5 41.05,67.75 41,67 40.95,66.25 40.95,65.5 40.95,64.75 40.95,64 40.95,63.25 40.95,62.5 40.95,62.25 40.95,62 40.95,61.75 40.85,61.5 40.75,61.25 40.7,61 40.6,60.75 40.5,60.5 40.45,60.25 40.35,60 40.25,59.75 40.2,59.5 40.1,59.25 40,59 39.95,58.75 39.95,58.5 39.95,58.25 39.95,58 39.95,57.75 39.95,57.5 39.95,57.25z M35.95,59.5 C35.95,59.75 35.95,60 35.95,60.25 36.1,60.5 36.25,60.75 36.4,61 36.5,61.25 36.6,61.5 36.7,61.75 36.75,62 36.85,62.25 36.95,62.5 36.95,62.75 36.95,63 36.95,63.25 36.95,63.75 36.95,64.25 36.95,64.75 36.95,65 36.95,65.25 36.95,65.5 36.95,65.75 36.95,66 36.95,66.25 36.3,66.6 35.6,66.9 34.9,67.2 34.35,67.45 33.75,67.75 33.2,68 26.2,68 19.2,68 12.2,68 12.05,67.85 11.85,67.65 11.7,67.5 11.45,67.25 11.2,67 10.95,66.75 10.7,66.5 10.45,66.25 10.2,66 9.75,65.85 9.4,65.6 9.05,65.35 9,65.3 8.95,65.15 8.95,65 8.95,64.25 8.95,63.5 8.95,62.75 8.95,61.25 8.9,59.75 8.85,58.25 8.8,56.95 8.9,55.7 9.2,54.5 9.55,54.25 9.85,54 10.2,53.8 10.7,53.5 11.2,53.25 11.7,53 11.95,52.9 12.2,52.85 12.45,52.85 18.85,52.85 25.25,52.9 31.7,53 32.1,53.4 32.5,53.8 32.95,54.25 33.7,55 34.4,55.75 35.15,56.55 35.35,56.75 35.55,57 35.7,57.25 35.75,57.5 35.8,57.75 35.85,58 35.9,58.25 35.95,58.5 35.95,58.75 35.95,59 35.95,59.25 35.95,59.5z"/>
        </g>
      </g>
    </g>
  </g>
  <defs/>
</svg>