<?xml version="1.0" encoding="utf-8"?>
<!-- Generator: flash2svg, http://dissentgraphics.com/tools/flash2svg -->
<svg id="Scene_1_copy_13_copy_13_copy_13_copy_9_f14" image-rendering="optimizeQuality" baseProfile="basic" version="1.1" x="0px" y="0px" width="550px" height="400px" viewBox="-89 -50 34940048.7 384.2" xmlns="http://www.w3.org/2000/svg" xmlns:xlink="http://www.w3.org/1999/xlink">
  <g id="Scene_1_copy_13_copy_13_copy_13_copy_9_f14_1_14">
    <g id="element2" overflow="visible">
      <g id="Symbol_1_f1_1">
        <g id="element4">
          <path id="path5" fill="#906" d="M27,168 Q27,168.1 26.95,168.15 C26.55,168.3 26.15,168.4 25.75,168.5 25.5,168.75 25.25,169 25,169.25 25,169.5 24.95,169.7 24.85,169.95 24.8,170.2 24.65,170.5 24.5,170.75 23.5,171.6 22.65,172.6 22,173.75 21.55,174.6 20.95,175.35 20.25,176 20.15,176.25 20.05,176.5 20,176.75 19.9,177 19.8,177.25 19.75,177.5 19.5,177.75 19.25,178 19,178.25 19,178.5 18.95,178.7 18.85,178.95 18.8,179.2 18.65,179.5 18.5,179.75 18.25,180 18,180.25 17.75,180.5 17.5,180.75 17.25,181 17,181.25 16.75,181.5 16.5,181.75 16.25,182 16,182.5 15.7,183 15.45,183.45 15.3,183.7 15.2,184 15.1,184.25 15.05,184.5 15,184.75 15,185 15,185.25 15,185.5 15,185.75 15,186 15,186.25 15,186.5 15,186.75 15,187 15,187.25 14.1,188.4 13.3,189.65 12.6,190.9 12.1,191.9 11.65,192.95 11.25,194 7.7,197.85 4.1,201.75 0.55,205.6 -5,211.55 -10.4,217.7 -15.75,224 -15.9,224.25 -16.05,224.5 -16.2,224.75 -16.65,225.8 -17.2,226.75 -17.95,227.6 -18.6,228.35 -18.95,229.15 -19,230 -19,230.25 -18.95,230.45 -18.85,230.65 -18.7,230.95 -18.5,231.25 -18.25,231.5 -17.85,231.65 -17.45,231.85 -17,232 -16.65,231.9 -16.35,231.8 -16.05,231.65 -15.95,231.6 -15.85,231.55 -15.75,231.5 -15.6,231.35 -15.4,231.15 -15.25,231 -15,230.75 -14.75,230.5 -14.5,230.25 -10,223.55 -4.8,217.4 1.05,211.8 8.55,204.65 14.55,196.55 19,187.5 19,187.25 19,187 19,186.75 19,186.5 19,186.25 19,186 19,185.75 19,185.5 19,185.25 19.45,184.4 20.05,183.6 20.7,182.95 21.25,182.5 21.75,182 22.25,181.5 22.5,181 22.75,180.5 23,180 23.25,179.5 23.45,179 23.7,178.45 23.8,178.2 23.9,178 24,177.75 24.25,177.5 24.5,177.3 24.8,177.25 24.85,177.25 24.9,177.35 25,177.5 25,178 25,178.5 25,179 25,179.5 25,180 25.05,180.45 25.1,180.7 25.15,181 25.25,181.25 26.65,184 28.1,186.7 29.55,189.45 31.15,192.5 32.9,195.55 34.75,198.5 37.25,201.75 40,204.7 43.05,207.4 46.7,210.75 50.3,214.15 53.75,217.7 56.15,220.2 58.85,222.3 61.9,224.05 79,233.8 97.35,235.4 117,228.75 123.15,224.3 128.65,219.25 133.4,213.5 139.85,205.85 146.35,198.25 152.95,190.75 153.55,190.6 154.15,190.55 154.7,190.6 154.8,190.6 154.9,190.75 154.95,191 154.95,192.25 154.95,193.5 154.95,194.75 154.95,199 154.95,203.25 154.95,207.5 154.95,212 154.95,216.5 154.95,221 157.5,228.3 161.15,234.95 165.9,240.9 168.25,243.85 171.05,246.2 174.4,247.9 195.2,258.55 217.35,262.65 240.9,260.2 245.25,259.75 249.1,258.25 252.45,255.6 268.9,242.7 282.1,226.9 291.95,208.25 291.95,208 291.95,207.75 291.95,207.5 291.95,207.25 292,207 292.1,206.75 292.15,206.5 292.3,206.25 292.45,206 296.65,212.55 301.15,218.9 305.9,225.1 307.55,227.25 309.15,229.5 310.65,231.75 316.2,240.4 323.7,246.6 333.1,250.45 357.3,260.3 382.6,263.7 408.95,260.75 415.9,256.9 422.2,252.3 427.8,246.85 435.15,239.7 441.15,231.7 445.7,222.75 445.95,222.5 446.2,222.2 446.4,221.95 447.1,221 447.75,220 448.4,218.95 448.9,218.1 449.5,217.4 450.2,216.75 450.3,216.5 450.4,216.25 450.55,216.05 451.05,215.3 451.45,214.55 451.75,213.75 452,213.25 452.2,212.75 452.45,212.25 453.95,210.75 455.35,209.15 456.65,207.5 458,205.75 459.4,204.35 460.95,203.25 460.95,203.75 460.95,204.25 460.95,204.75 460.95,205.25 460.95,205.75 460.95,206.25 460.95,206.5 460.95,206.75 460.95,207 461.1,207.25 461.25,207.5 461.35,207.75 461.85,209 462.3,210.25 462.7,211.5 463.05,212.55 463.5,213.55 463.95,214.5 464.05,215 464.15,215.5 464.3,215.95 464.75,217.5 465.2,219 465.75,220.45 466.15,221.7 466.45,223 466.7,224.25 467.75,226 468.75,227.7 469.8,229.4 470.9,231.15 471.95,232.95 472.95,234.75 473.05,235 473.15,235.2 473.25,235.45 473.95,237.25 474.65,239.05 475.3,240.8 475.85,242.3 476.5,243.8 477.2,245.25 484.75,256.3 494.25,265.45 505.7,272.6 512.75,276.95 520.2,280 528.15,281.75 552.4,287 575.2,283.85 596.45,272.25 596.95,272.1 597.45,271.9 597.9,271.65 598,271.6 598.1,271.55 598.2,271.5 598.35,271.35 598.55,271.15 598.7,271 598.95,270.75 599.15,270.45 599.35,270.15 599.5,269.95 599.6,269.75 599.7,269.5 599.75,269.25 599.85,268.95 599.9,268.7 599.95,268.45 599.95,268.25 599.9,268 599.85,267.75 599.75,267.5 599.7,267.25 599.55,267 599.35,266.75 599.1,266.6 598.75,266.35 598.35,266.15 597.95,266 597.6,266.05 597.3,266.2 597,266.35 596.8,266.45 596.6,266.6 596.45,266.75 588.1,272.45 578.85,276.4 568.65,278.55 557.4,280.95 545.95,281.2 534.3,279.25 522,277.2 510.85,272.25 500.85,264.4 496.5,261 492.7,257.2 489.35,252.95 478.15,238.8 470,223 464.95,205.5 464.95,205 464.95,204.5 464.95,204 464.95,202.75 465,201.5 465.05,200.25 465.1,199.2 464.95,198.2 464.7,197.25 464.55,197 464.35,196.75 464.1,196.6 463.75,196.35 463.4,196.15 462.95,196 462.55,196.15 462.15,196.35 461.7,196.5 460,198.25 458.35,200.1 456.8,202 454.45,204.8 451.95,207.45 449.2,210 447.65,213.2 445.85,216.25 443.8,219.2 441.65,222.25 439.6,225.25 437.55,228.3 429.75,239.9 419.9,249.3 407.95,256.5 395.3,256.5 382.65,256.05 370.05,255.2 354.3,254.15 339.4,249.9 325.45,242.5 321,236.85 316.5,231.3 311.85,225.85 306.3,219.3 301.25,212.35 296.7,205 296.7,204.75 296.7,204.5 296.65,204.25 296.45,203.5 296.2,202.75 295.9,202 295.7,201.5 295.45,201 295.2,200.5 294.8,200.35 294.4,200.2 293.95,200.1 293.6,200.05 293.3,200 292.95,200 292.6,200.05 292.3,200.15 292,200.3 291.9,200.35 291.8,200.4 291.7,200.5 290.9,201.35 290.15,202.3 289.5,203.25 288.95,204 288.45,204.75 287.95,205.5 287.95,205.75 287.95,206 287.95,206.25 287.95,206.5 287.95,206.7 287.9,206.95 287.85,207.2 287.8,207.5 287.7,207.75 283.45,213.9 279.45,220.2 275.65,226.6 267.6,240.25 256.45,250.2 242.2,256.5 228.55,258.35 215.05,257.9 201.8,255.2 188.45,252.5 176.9,246.6 167.2,237.5 165.45,234.65 163.85,231.65 162.5,228.6 161.2,225.65 160,222.6 158.95,219.5 158.95,217.75 158.95,216 158.95,214.25 158.95,209.5 159,204.75 159.05,200 159.1,194.7 159,189.45 158.7,184.25 158.55,184 158.35,183.75 158.15,183.6 157.8,183.35 157.4,183.15 156.95,183 156.6,183.05 156.3,183.15 156,183.3 155.9,183.35 155.8,183.4 155.7,183.5 155.55,183.65 155.4,183.85 155.3,184.05 155.15,184.25 155.05,184.5 154.95,184.75 154.9,185 154.8,185.25 154.7,185.5 154.35,185.75 154.05,186 153.7,186.25 148.05,189.85 143.25,194.55 139.35,200.4 132.75,210.25 124.55,218.55 114.75,225.25 103.6,228.7 92.1,229.55 80.25,227.75 79.4,227.5 78.55,227.25 77.7,227.1 74.25,226.35 71.05,225.1 68.2,223.25 62.45,219.6 56.95,215.55 51.7,211.1 41.35,202.25 33.75,191.55 29,179 29,178.5 29,178 29,177.5 29,176 29.05,174.5 29.1,173 29.15,171.7 29,170.45 28.75,169.25 28.6,169 28.4,168.75 28.15,168.6 27.8,168.35 27.4,168.15 27,168z"/>
        </g>
      </g>
    </g>
  </g>
  <g id="Scene_1_copy_13_copy_13_copy_13_copy_9_f14_0_14">
    <g id="element">
      <path id="path" fill="#906" d="M44110.25,17.25 Q44111.25,17 44112.25,16.7 C44114.7,16.05 44116.95,16.1 44119,16.75 44119.95,17.5 44120.85,18.25 44121.8,19 44122.65,19.65 44123.35,20.4 44124,21.25 44124.1,21.5 44124.2,21.75 44124.25,22 44125.45,25.45 44126.5,28.95 44127.45,32.45 44128.25,35.5 44129.1,38.5 44130,41.5 44129.9,42.25 44129.9,43 44129.95,43.75 44131.25,58.95 44132.1,74.2 44132.45,89.5 44132.8,104.75 44133.1,120 44133.25,135.25 44133.4,135.5 44133.55,135.75 44133.7,136 44133.85,136.25 44133.95,136.5 44134,136.75 44134.25,137 44134.5,137.25 44134.75,137.5 44135.2,137.65 44135.6,137.85 44136,138 44136.35,137.9 44136.65,137.8 44137,137.65 44137.1,137.6 44137.2,137.55 44137.25,137.45 44137.35,137.3 44137.45,137.15 44137.5,137 44137.6,136.5 44137.65,136 44137.6,135.5 44137.55,135 44137.4,134.5 44137.25,134 44137.2,133.75 44137.1,133.5 44137,133.25 44137,132.5 44137,131.75 44137.05,131 44137.2,112.15 44137.2,93.4 44137.05,74.75 44136.85,55.4 44133.6,36.65 44127.25,18.5 44126.35,17.75 44125.45,16.95 44124.55,16.2 44123.1,14.95 44121.7,13.75 44120.25,12.5 44119.85,12.35 44119.45,12.15 44119,12 44115.65,12.3 44112.35,12.7 44109,13.25 44096.65,20.75 44086.35,30.45 44078.15,42.35 44067.6,57.7 44057.9,73.5 44049,89.75 44049,89.1 44049,88.4 44049,87.75 44049,76.75 44048.95,65.75 44048.85,54.75 44048.75,43.9 44048.15,33.15 44047,22.5 44046.95,22.25 44046.85,22 44046.8,21.75 44046.25,19.75 44045.75,17.75 44045.3,15.7 44044.9,13.85 44044.2,12.15 44043.25,10.5 44042.85,10.35 44042.45,10.15 44042,10 44041.65,10.05 44041.35,10.15 44041,10.25 44040,10.5 44039,10.75 44038.05,11.1 44037.5,11.25 44037,11.5 44036.5,11.75 44036.25,12 44036,12.25 44035.75,12.5 44034.7,14.75 44033.5,17 44032.25,19.2 44031,21.4 44029.8,23.65 44028.75,26 44025.75,36.9 44023.45,47.9 44021.8,59.05 44019.05,78.1 44017.55,97.3 44017.35,116.75 44017.1,136 44017,155.25 44017,174.5 44017,194 44017.05,213.5 44017.1,233 44017.15,252.45 44017.05,271.85 44016.75,291.2 44015.95,286.15 44015.15,281.05 44014.3,276 44011.15,256.7 44007.55,237.5 44003.5,218.35 43999.35,198.8 43995.4,179.3 43991.55,159.75 43987.75,140.2 43983.9,120.7 43980,101.25 43980.05,100.5 43980.05,99.75 43980,99 43979.35,83.75 43978.85,68.5 43978.45,53.25 43978.1,38.3 43977.85,23.3 43977.75,8.25 43977.6,8 43977.4,7.75 43977.2,7.6 43976.85,7.35 43976.45,7.15 43976.05,7 43976.05,7.05 43976.05,7.1 43976,7.1 43975.7,7.2 43975.4,7.3 43975.1,7.4 43974.9,7.45 43974.7,7.6 43974.55,7.75 43974.4,8 43974.2,8.25 43974.05,8.5 43974,9.25 43974,10 43974,10.75 43973.85,26.05 43974,41.3 43974.5,56.5 43975,71.75 43975.5,87 43976.05,102.25 43979.35,118.45 43982.55,134.7 43985.7,150.95 43989.4,170.25 43993.35,189.5 43997.6,208.7 44001.85,228.15 44005.6,247.65 44008.9,267.2 44012.2,286.6 44014.9,306.1 44017,325.7 44017.25,325.95 44017.5,326.2 44017.75,326.45 44018.2,326.6 44018.6,326.8 44019,326.95 44019.35,326.9 44019.65,326.75 44019.95,326.6 44020.15,326.5 44020.3,326.35 44020.45,326.2 44020.6,325.95 44020.7,325.7 44020.75,325.45 44021.05,323.25 44021.2,321 44021.2,318.7 44021.05,298.95 44021,279.25 44021,259.5 44021,240.25 44021,221 44021,201.75 44021,182.5 44020.9,163.25 44020.7,144 44020.5,124.35 44021.1,104.8 44022.45,85.45 44023.85,65.6 44027.3,46.15 44032.75,27 44033.85,24.7 44035.05,22.45 44036.3,20.25 44037.3,18.55 44038.2,16.8 44039,15 44039.45,14.85 44039.85,14.75 44040.2,14.8 44040.4,14.85 44040.6,15 44040.75,15.25 44040.85,15.75 44041,16.25 44041.15,16.7 44041.6,17.95 44041.95,19.2 44042.2,20.45 44042.4,21.5 44042.65,22.5 44043,23.5 44043,24 44043.05,24.5 44043.1,25 44044.55,37.1 44045.2,49.35 44045.15,61.75 44045.05,73.75 44045,85.75 44045,97.75 44045.25,98 44045.5,98.25 44045.75,98.5 44046.2,98.65 44046.6,98.85 44047,99 44047.35,98.9 44047.65,98.8 44047.95,98.65 44048.15,98.55 44048.35,98.4 44048.5,98.25 44055.3,88.4 44061.3,78.15 44066.5,67.5 44076.65,46.85 44091.2,30.1 44110.25,17.25z"/>
    </g>
    <g id="element1" overflow="visible">
      <g id="Symbol_2_0">
        <g id="element3">
          <path id="path1" fill="#906" d="M610.95,64.75 Q610.95,64.35 610.85,64 C610.8,63.75 610.75,63.5 610.7,63.25 609.85,62.15 608.95,61.15 607.95,60.2 606.95,59.25 605.95,58.25 604.95,57.25 604.7,57 604.45,56.75 604.2,56.5 603.75,56.35 603.35,56.15 602.95,56 596.6,56 590.3,56 583.95,56 583,56.25 581.95,56.6 580.7,57.05 578.95,57.7 577.5,58.75 576.3,60.1 576.15,60.25 576,60.5 575.95,60.75 575.95,61.75 575.95,62.75 575.95,63.75 575.95,66.5 575.95,69.25 575.95,72 575.95,74 575.95,76 575.95,78 575.95,78.25 575.95,78.5 575.95,78.75 576.2,79 576.45,79.25 576.7,79.5 577.1,79.65 577.5,79.85 577.95,80 578.3,79.9 578.6,79.8 578.9,79.65 579.1,79.55 579.3,79.4 579.45,79.25 579.6,79.1 579.75,79 579.85,79.05 580.15,79.1 580.45,79.25 580.7,79.5 581.1,79.65 581.5,79.85 581.95,80 592.1,81.85 601.85,80.9 611.1,77.25 611.35,77.15 611.55,77 611.7,76.75 611.95,76 612.05,75.25 612,74.5 611.95,73.75 611.95,73 611.95,72.25 611.95,71.5 611.95,70.75 611.95,70 611.95,69.75 611.95,69.5 611.95,69.25 611.85,69 611.75,68.75 611.7,68.5 611.6,68.25 611.5,68 611.45,67.75 611.35,67.5 611.25,67.25 611.2,67 611.1,66.75 611,66.5 610.95,66.25 610.95,66 610.95,65.75 610.95,65.5 610.95,65.25 610.95,65 610.95,64.75z M606.95,67 C606.95,67.25 606.95,67.5 606.95,67.75 607.1,68 607.25,68.25 607.4,68.5 607.5,68.75 607.6,69 607.7,69.25 607.75,69.5 607.85,69.75 607.95,70 607.95,70.25 607.95,70.5 607.95,70.75 607.95,71.25 607.95,71.75 607.95,72.25 607.95,72.5 607.95,72.75 607.95,73 607.95,73.25 607.95,73.5 607.95,73.75 607.3,74.1 606.6,74.4 605.9,74.7 605.35,74.95 604.75,75.25 604.2,75.5 597.2,75.5 590.2,75.5 583.2,75.5 583.05,75.35 582.85,75.15 582.7,75 582.45,74.75 582.2,74.5 581.95,74.25 581.7,74 581.45,73.75 581.2,73.5 580.75,73.35 580.4,73.1 580.05,72.85 580,72.8 579.95,72.65 579.95,72.5 579.95,71.75 579.95,71 579.95,70.25 579.95,68.75 579.9,67.25 579.85,65.75 579.8,64.45 579.9,63.2 580.2,62 580.55,61.75 580.85,61.5 581.2,61.3 581.7,61 582.2,60.75 582.7,60.5 582.95,60.4 583.2,60.35 583.45,60.35 589.85,60.35 596.25,60.4 602.7,60.5 603.1,60.9 603.5,61.3 603.95,61.75 604.7,62.5 605.4,63.25 606.15,64.05 606.35,64.25 606.55,64.5 606.7,64.75 606.75,65 606.8,65.25 606.85,65.5 606.9,65.75 606.95,66 606.95,66.25 606.95,66.5 606.95,66.75 606.95,67z"/>
        </g>
      </g>
    </g>
  </g>
  <defs/>
</svg>