<?xml version="1.0" encoding="utf-8"?>
<!-- Generator: flash2svg, http://dissentgraphics.com/tools/flash2svg -->
<svg id="Scene_1_copy_13_copy_13_copy_13_copy_9_f8" image-rendering="optimizeQuality" baseProfile="basic" version="1.1" x="0px" y="0px" width="550px" height="400px" viewBox="-89 -50 85192156.75 1738.35" xmlns="http://www.w3.org/2000/svg" xmlns:xlink="http://www.w3.org/1999/xlink">
  <g id="Scene_1_copy_13_copy_13_copy_13_copy_9_f8_1_8">
    <g id="element1" overflow="visible">
      <g id="Symbol_1_f1_1">
        <g id="element3">
          <path id="path4" fill="#906" d="M27,168 Q27,168.1 26.95,168.15 C26.55,168.3 26.15,168.4 25.75,168.5 25.5,168.75 25.25,169 25,169.25 25,169.5 24.95,169.7 24.85,169.95 24.8,170.2 24.65,170.5 24.5,170.75 23.5,171.6 22.65,172.6 22,173.75 21.55,174.6 20.95,175.35 20.25,176 20.15,176.25 20.05,176.5 20,176.75 19.9,177 19.8,177.25 19.75,177.5 19.5,177.75 19.25,178 19,178.25 19,178.5 18.95,178.7 18.85,178.95 18.8,179.2 18.65,179.5 18.5,179.75 18.25,180 18,180.25 17.75,180.5 17.5,180.75 17.25,181 17,181.25 16.75,181.5 16.5,181.75 16.25,182 16,182.5 15.7,183 15.45,183.45 15.3,183.7 15.2,184 15.1,184.25 15.05,184.5 15,184.75 15,185 15,185.25 15,185.5 15,185.75 15,186 15,186.25 15,186.5 15,186.75 15,187 15,187.25 14.1,188.4 13.3,189.65 12.6,190.9 12.1,191.9 11.65,192.95 11.25,194 7.7,197.85 4.1,201.75 0.55,205.6 -5,211.55 -10.4,217.7 -15.75,224 -15.9,224.25 -16.05,224.5 -16.2,224.75 -16.65,225.8 -17.2,226.75 -17.95,227.6 -18.6,228.35 -18.95,229.15 -19,230 -19,230.25 -18.95,230.45 -18.85,230.65 -18.7,230.95 -18.5,231.25 -18.25,231.5 -17.85,231.65 -17.45,231.85 -17,232 -16.65,231.9 -16.35,231.8 -16.05,231.65 -15.95,231.6 -15.85,231.55 -15.75,231.5 -15.6,231.35 -15.4,231.15 -15.25,231 -15,230.75 -14.75,230.5 -14.5,230.25 -10,223.55 -4.8,217.4 1.05,211.8 8.55,204.65 14.55,196.55 19,187.5 19,187.25 19,187 19,186.75 19,186.5 19,186.25 19,186 19,185.75 19,185.5 19,185.25 19.45,184.4 20.05,183.6 20.7,182.95 21.25,182.5 21.75,182 22.25,181.5 22.5,181 22.75,180.5 23,180 23.25,179.5 23.45,179 23.7,178.45 23.8,178.2 23.9,178 24,177.75 24.25,177.5 24.5,177.3 24.8,177.25 24.85,177.25 24.9,177.35 25,177.5 25,178 25,178.5 25,179 25,179.5 25,180 25.05,180.45 25.1,180.7 25.15,181 25.25,181.25 26.65,184 28.1,186.7 29.55,189.45 31.15,192.5 32.9,195.55 34.75,198.5 37.25,201.75 40,204.7 43.05,207.4 46.7,210.75 50.3,214.15 53.75,217.7 56.15,220.2 58.85,222.3 61.9,224.05 79,233.8 97.35,235.4 117,228.75 123.15,224.3 128.65,219.25 133.4,213.5 139.85,205.85 146.35,198.25 152.95,190.75 153.55,190.6 154.15,190.55 154.7,190.6 154.8,190.6 154.9,190.75 154.95,191 154.95,192.25 154.95,193.5 154.95,194.75 154.95,199 154.95,203.25 154.95,207.5 154.95,212 154.95,216.5 154.95,221 157.5,228.3 161.15,234.95 165.9,240.9 168.25,243.85 171.05,246.2 174.4,247.9 195.2,258.55 217.35,262.65 240.9,260.2 245.25,259.75 249.1,258.25 252.45,255.6 268.9,242.7 282.1,226.9 291.95,208.25 291.95,208 291.95,207.75 291.95,207.5 291.95,207.25 292,207 292.1,206.75 292.15,206.5 292.3,206.25 292.45,206 296.65,212.55 301.15,218.9 305.9,225.1 307.55,227.25 309.15,229.5 310.65,231.75 316.2,240.4 323.7,246.6 333.1,250.45 357.3,260.3 382.6,263.7 408.95,260.75 415.9,256.9 422.2,252.3 427.8,246.85 435.15,239.7 441.15,231.7 445.7,222.75 445.95,222.5 446.2,222.2 446.4,221.95 447.1,221 447.75,220 448.4,218.95 448.9,218.1 449.5,217.4 450.2,216.75 450.3,216.5 450.4,216.25 450.55,216.05 451.05,215.3 451.45,214.55 451.75,213.75 452,213.25 452.2,212.75 452.45,212.25 453.95,210.75 455.35,209.15 456.65,207.5 458,205.75 459.4,204.35 460.95,203.25 460.95,203.75 460.95,204.25 460.95,204.75 460.95,205.25 460.95,205.75 460.95,206.25 460.95,206.5 460.95,206.75 460.95,207 461.1,207.25 461.25,207.5 461.35,207.75 461.85,209 462.3,210.25 462.7,211.5 463.05,212.55 463.5,213.55 463.95,214.5 464.05,215 464.15,215.5 464.3,215.95 464.75,217.5 465.2,219 465.75,220.45 466.15,221.7 466.45,223 466.7,224.25 467.75,226 468.75,227.7 469.8,229.4 470.9,231.15 471.95,232.95 472.95,234.75 473.05,235 473.15,235.2 473.25,235.45 473.95,237.25 474.65,239.05 475.3,240.8 475.85,242.3 476.5,243.8 477.2,245.25 484.75,256.3 494.25,265.45 505.7,272.6 512.75,276.95 520.2,280 528.15,281.75 552.4,287 575.2,283.85 596.45,272.25 596.95,272.1 597.45,271.9 597.9,271.65 598,271.6 598.1,271.55 598.2,271.5 598.35,271.35 598.55,271.15 598.7,271 598.95,270.75 599.15,270.45 599.35,270.15 599.5,269.95 599.6,269.75 599.7,269.5 599.75,269.25 599.85,268.95 599.9,268.7 599.95,268.45 599.95,268.25 599.9,268 599.85,267.75 599.75,267.5 599.7,267.25 599.55,267 599.35,266.75 599.1,266.6 598.75,266.35 598.35,266.15 597.95,266 597.6,266.05 597.3,266.2 597,266.35 596.8,266.45 596.6,266.6 596.45,266.75 588.1,272.45 578.85,276.4 568.65,278.55 557.4,280.95 545.95,281.2 534.3,279.25 522,277.2 510.85,272.25 500.85,264.4 496.5,261 492.7,257.2 489.35,252.95 478.15,238.8 470,223 464.95,205.5 464.95,205 464.95,204.5 464.95,204 464.95,202.75 465,201.5 465.05,200.25 465.1,199.2 464.95,198.2 464.7,197.25 464.55,197 464.35,196.75 464.1,196.6 463.75,196.35 463.4,196.15 462.95,196 462.55,196.15 462.15,196.35 461.7,196.5 460,198.25 458.35,200.1 456.8,202 454.45,204.8 451.95,207.45 449.2,210 447.65,213.2 445.85,216.25 443.8,219.2 441.65,222.25 439.6,225.25 437.55,228.3 429.75,239.9 419.9,249.3 407.95,256.5 395.3,256.5 382.65,256.05 370.05,255.2 354.3,254.15 339.4,249.9 325.45,242.5 321,236.85 316.5,231.3 311.85,225.85 306.3,219.3 301.25,212.35 296.7,205 296.7,204.75 296.7,204.5 296.65,204.25 296.45,203.5 296.2,202.75 295.9,202 295.7,201.5 295.45,201 295.2,200.5 294.8,200.35 294.4,200.2 293.95,200.1 293.6,200.05 293.3,200 292.95,200 292.6,200.05 292.3,200.15 292,200.3 291.9,200.35 291.8,200.4 291.7,200.5 290.9,201.35 290.15,202.3 289.5,203.25 288.95,204 288.45,204.75 287.95,205.5 287.95,205.75 287.95,206 287.95,206.25 287.95,206.5 287.95,206.7 287.9,206.95 287.85,207.2 287.8,207.5 287.7,207.75 283.45,213.9 279.45,220.2 275.65,226.6 267.6,240.25 256.45,250.2 242.2,256.5 228.55,258.35 215.05,257.9 201.8,255.2 188.45,252.5 176.9,246.6 167.2,237.5 165.45,234.65 163.85,231.65 162.5,228.6 161.2,225.65 160,222.6 158.95,219.5 158.95,217.75 158.95,216 158.95,214.25 158.95,209.5 159,204.75 159.05,200 159.1,194.7 159,189.45 158.7,184.25 158.55,184 158.35,183.75 158.15,183.6 157.8,183.35 157.4,183.15 156.95,183 156.6,183.05 156.3,183.15 156,183.3 155.9,183.35 155.8,183.4 155.7,183.5 155.55,183.65 155.4,183.85 155.3,184.05 155.15,184.25 155.05,184.5 154.95,184.75 154.9,185 154.8,185.25 154.7,185.5 154.35,185.75 154.05,186 153.7,186.25 148.05,189.85 143.25,194.55 139.35,200.4 132.75,210.25 124.55,218.55 114.75,225.25 103.6,228.7 92.1,229.55 80.25,227.75 79.4,227.5 78.55,227.25 77.7,227.1 74.25,226.35 71.05,225.1 68.2,223.25 62.45,219.6 56.95,215.55 51.7,211.1 41.35,202.25 33.75,191.55 29,179 29,178.5 29,178 29,177.5 29,176 29.05,174.5 29.1,173 29.15,171.7 29,170.45 28.75,169.25 28.6,169 28.4,168.75 28.15,168.6 27.8,168.35 27.4,168.15 27,168z"/>
        </g>
      </g>
    </g>
  </g>
  <g id="Scene_1_copy_13_copy_13_copy_13_copy_9_f8_0_8">
    <g id="element" overflow="visible">
      <g id="Symbol_2_0">
        <g id="element2">
          <path id="path" fill="#906" d="M347.4,124.75 Q347.4,124.35 347.3,124 C347.25,123.75 347.2,123.5 347.15,123.25 346.3,122.15 345.4,121.15 344.4,120.2 343.4,119.25 342.4,118.25 341.4,117.25 341.15,117 340.9,116.75 340.65,116.5 340.2,116.35 339.8,116.15 339.4,116 333.05,116 326.75,116 320.4,116 319.45,116.25 318.4,116.6 317.15,117.05 315.4,117.7 313.95,118.75 312.75,120.1 312.6,120.25 312.45,120.5 312.4,120.75 312.4,121.75 312.4,122.75 312.4,123.75 312.4,126.5 312.4,129.25 312.4,132 312.4,134 312.4,136 312.4,138 312.4,138.25 312.4,138.5 312.4,138.75 312.65,139 312.9,139.25 313.15,139.5 313.55,139.65 313.95,139.85 314.4,140 314.75,139.9 315.05,139.8 315.35,139.65 315.55,139.55 315.75,139.4 315.9,139.25 316.05,139.1 316.2,139 316.3,139.05 316.6,139.1 316.9,139.25 317.15,139.5 317.55,139.65 317.95,139.85 318.4,140 328.55,141.85 338.3,140.9 347.55,137.25 347.8,137.15 348,137 348.15,136.75 348.4,136 348.5,135.25 348.45,134.5 348.4,133.75 348.4,133 348.4,132.25 348.4,131.5 348.4,130.75 348.4,130 348.4,129.75 348.4,129.5 348.4,129.25 348.3,129 348.2,128.75 348.15,128.5 348.05,128.25 347.95,128 347.9,127.75 347.8,127.5 347.7,127.25 347.65,127 347.55,126.75 347.45,126.5 347.4,126.25 347.4,126 347.4,125.75 347.4,125.5 347.4,125.25 347.4,125 347.4,124.75z M343.4,127 C343.4,127.25 343.4,127.5 343.4,127.75 343.55,128 343.7,128.25 343.85,128.5 343.95,128.75 344.05,129 344.15,129.25 344.2,129.5 344.3,129.75 344.4,130 344.4,130.25 344.4,130.5 344.4,130.75 344.4,131.25 344.4,131.75 344.4,132.25 344.4,132.5 344.4,132.75 344.4,133 344.4,133.25 344.4,133.5 344.4,133.75 343.75,134.1 343.05,134.4 342.35,134.7 341.8,134.95 341.2,135.25 340.65,135.5 333.65,135.5 326.65,135.5 319.65,135.5 319.5,135.35 319.3,135.15 319.15,135 318.9,134.75 318.65,134.5 318.4,134.25 318.15,134 317.9,133.75 317.65,133.5 317.2,133.35 316.85,133.1 316.5,132.85 316.45,132.8 316.4,132.65 316.4,132.5 316.4,131.75 316.4,131 316.4,130.25 316.4,128.75 316.35,127.25 316.3,125.75 316.25,124.45 316.35,123.2 316.65,122 317,121.75 317.3,121.5 317.65,121.3 318.15,121 318.65,120.75 319.15,120.5 319.4,120.4 319.65,120.35 319.9,120.35 326.3,120.35 332.7,120.4 339.15,120.5 339.55,120.9 339.95,121.3 340.4,121.75 341.15,122.5 341.85,123.25 342.6,124.05 342.8,124.25 343,124.5 343.15,124.75 343.2,125 343.25,125.25 343.3,125.5 343.35,125.75 343.4,126 343.4,126.25 343.4,126.5 343.4,126.75 343.4,127z"/>
        </g>
      </g>
    </g>
  </g>
  <defs/>
</svg>